<svg width="12" height="12" viewBox="0 0 12 12" fill="none" xmlns="http://www.w3.org/2000/svg">
<g clip-path="url(#clip0_9_95)">
<path d="M3.75 4.02898V4.68748C3.75 4.99798 4.002 5.24998 4.3125 5.24998H7.6875C7.83669 5.24998 7.97976 5.19072 8.08525 5.08523C8.19074 4.97974 8.25 4.83666 8.25 4.68748V4.02898C8.62531 3.89629 8.94163 3.63519 9.14305 3.29183C9.34446 2.94848 9.41802 2.54497 9.3507 2.15263C9.28339 1.76029 9.07954 1.40437 8.77519 1.14779C8.47084 0.891214 8.08558 0.750488 7.6875 0.750488C7.28943 0.750488 6.90417 0.891214 6.59982 1.14779C6.29547 1.40437 6.09162 1.76029 6.02431 2.15263C5.95699 2.54497 6.03054 2.94848 6.23196 3.29183C6.43338 3.63519 6.7497 3.89629 7.125 4.02898V4.68748H4.875V4.02898C5.25031 3.89629 5.56663 3.63519 5.76805 3.29183C5.96946 2.94848 6.04302 2.54497 5.9757 2.15263C5.90839 1.76029 5.70454 1.40437 5.40019 1.14779C5.09584 0.891214 4.71058 0.750488 4.3125 0.750488C3.91443 0.750488 3.52917 0.891214 3.22482 1.14779C2.92047 1.40437 2.71662 1.76029 2.64931 2.15263C2.58199 2.54497 2.65554 2.94848 2.85696 3.29183C3.05838 3.63519 3.3747 3.89629 3.75 4.02898ZM6 10.125C6.29837 10.125 6.58452 10.0065 6.7955 9.79547C7.00648 9.5845 7.125 9.29835 7.125 8.99998C7.125 8.70161 7.00648 8.41546 6.7955 8.20448C6.58452 7.9935 6.29837 7.87498 6 7.87498C5.70164 7.87498 5.41549 7.9935 5.20451 8.20448C4.99353 8.41546 4.875 8.70161 4.875 8.99998C4.875 9.29835 4.99353 9.5845 5.20451 9.79547C5.41549 10.0065 5.70164 10.125 6 10.125ZM6.5625 7.74748V5.81248H5.4375V7.74748C5.0622 7.88017 4.74588 8.14127 4.54446 8.48462C4.34304 8.82798 4.26949 9.23149 4.33681 9.62383C4.40412 10.0162 4.60797 10.3721 4.91232 10.6287C5.21667 10.8852 5.60193 11.026 6 11.026C6.39808 11.026 6.78334 10.8852 7.08769 10.6287C7.39204 10.3721 7.59589 10.0162 7.6632 9.62383C7.73052 9.23149 7.65696 8.82798 7.45555 8.48462C7.25413 8.14127 6.93781 7.88017 6.5625 7.74748Z" fill="#79747E"/>
</g>
<defs>
<clipPath id="clip0_9_95">
<rect width="12" height="12" fill="white"/>
</clipPath>
</defs>
</svg>
