<svg width="12" height="12" viewBox="0 0 12 12" fill="none" xmlns="http://www.w3.org/2000/svg">
<g clip-path="url(#clip0_9_90)">
<path d="M5.99994 0.1875C6.10495 0.187432 6.20788 0.21676 6.29709 0.272165C6.38629 0.32757 6.45821 0.406839 6.50469 0.501L7.91619 3.36225L11.0737 3.82125C11.1775 3.83633 11.2751 3.88016 11.3553 3.94779C11.4356 4.01541 11.4953 4.10413 11.5278 4.20393C11.5602 4.30372 11.5641 4.4106 11.539 4.51249C11.5139 4.61438 11.4608 4.70721 11.3857 4.7805L9.10119 7.008L9.64044 10.152C9.65822 10.2554 9.64671 10.3618 9.60719 10.4591C9.56768 10.5563 9.50174 10.6405 9.41684 10.7023C9.33194 10.764 9.23147 10.8007 9.12678 10.8083C9.02209 10.8159 8.91736 10.7941 8.82444 10.7452L5.99994 9.26025L3.17544 10.7452C3.08258 10.794 2.97794 10.8158 2.87333 10.8083C2.76873 10.8007 2.66832 10.764 2.58345 10.7024C2.49858 10.6408 2.43263 10.5566 2.39305 10.4595C2.35347 10.3624 2.34182 10.2561 2.35944 10.1528L2.89944 7.00725L0.61344 4.7805C0.538115 4.70724 0.484815 4.61435 0.459579 4.51235C0.434343 4.41035 0.438182 4.30333 0.470659 4.2034C0.503136 4.10347 0.562953 4.01463 0.643332 3.94696C0.723711 3.87928 0.821439 3.83548 0.92544 3.8205L4.08294 3.36225L5.49519 0.501C5.54167 0.406839 5.61359 0.32757 5.70279 0.272165C5.792 0.21676 5.89493 0.187432 5.99994 0.1875Z" fill="#79747E"/>
</g>
<defs>
<clipPath id="clip0_9_90">
<rect width="12" height="12" fill="white"/>
</clipPath>
</defs>
</svg>
